<svg xmlns="http://www.w3.org/2000/svg" width="109" height="109" viewBox="0 0 109 109">
  <g id="emoji_events_black_24dp" transform="translate(-0.171)">
    <rect id="Rectangle_12" data-name="Rectangle 12" width="109" height="109" transform="translate(0.171)" fill="none"/>
    <path id="Path_3" data-name="Path 3" d="M75.86,12.108H66.753V3H21.215v9.108H12.108A9.134,9.134,0,0,0,3,21.215v4.554a22.73,22.73,0,0,0,19.991,22.5A22.811,22.811,0,0,0,39.43,61.744V75.86H21.215v9.108H66.753V75.86H48.538V61.744A22.811,22.811,0,0,0,64.977,48.265a22.73,22.73,0,0,0,19.991-22.5V21.215A9.134,9.134,0,0,0,75.86,12.108ZM12.108,25.769V21.215h9.108v17.4A13.709,13.709,0,0,1,12.108,25.769ZM43.984,53.092A13.7,13.7,0,0,1,30.323,39.43V12.108H57.645V39.43A13.7,13.7,0,0,1,43.984,53.092ZM75.86,25.769a13.709,13.709,0,0,1-9.108,12.842v-17.4H75.86Z" transform="translate(10.661 10.661)" fill="#fff"/>
  </g>
</svg>
