<svg id="sentiment_satisfied_alt_black_24dp" xmlns="http://www.w3.org/2000/svg" width="109.291" height="109.291" viewBox="0 0 109.291 109.291">
  <path id="Path_4" data-name="Path 4" d="M0,0H109.291V109.291H0Z" fill="none"/>
  <circle id="Ellipse_1" data-name="Ellipse 1" cx="7" cy="7" r="7" transform="translate(63.343 36)" fill="#fff"/>
  <ellipse id="Ellipse_2" data-name="Ellipse 2" cx="6.5" cy="7" rx="6.5" ry="7" transform="translate(32.343 36)" fill="#fff"/>
  <path id="Path_5" data-name="Path 5" d="M47.538,65.753a18.2,18.2,0,0,1-15.711-9.108h-7.6a25.023,25.023,0,0,0,46.631,0h-7.6a18.144,18.144,0,0,1-15.711,9.108ZM47.492,2A45.538,45.538,0,1,0,93.076,47.538,45.516,45.516,0,0,0,47.492,2Zm.046,81.968a36.43,36.43,0,1,1,36.43-36.43A36.42,36.42,0,0,1,47.538,83.968Z" transform="translate(7.108 7.108)" fill="#fff"/>
</svg>
