<svg xmlns="http://www.w3.org/2000/svg" width="110" height="109" viewBox="0 0 110 109">
  <g id="verified_black_24dp" transform="translate(0.485)">
    <g id="Group_3" data-name="Group 3">
      <rect id="Rectangle_13" data-name="Rectangle 13" width="110" height="109" transform="translate(-0.485)" fill="none"/>
    </g>
    <g id="Group_5" data-name="Group 5" transform="translate(4.554 6.831)">
      <g id="Group_4" data-name="Group 4">
        <path id="Path_6" data-name="Path 6" d="M101.183,49.269,90.072,36.564l1.548-16.8L75.181,16.027,66.574,1.5,51.092,8.149,35.609,1.5,27,16.027,10.563,19.715l1.548,16.849L1,49.269,12.111,61.974,10.563,78.823,27,82.557l8.607,14.572,15.483-6.694,15.483,6.649,8.607-14.527L91.62,78.823l-1.548-16.8ZM83.2,56.009l-2.55,2.96.364,3.871.82,8.88-8.652,1.958-3.825.865-2,3.37-4.508,7.65-8.106-3.506-3.643-1.548-3.6,1.548-8.106,3.506-4.508-7.6-2-3.37-3.825-.865L20.4,71.765l.82-8.925.364-3.871-2.55-2.96-5.874-6.694,5.874-6.74,2.55-2.96-.41-3.916-.82-8.834,8.652-1.958,3.825-.865,2-3.37,4.508-7.65,8.106,3.506,3.643,1.548,3.6-1.548,8.106-3.506,4.508,7.65,2,3.37,3.825.865,8.652,1.958-.82,8.88L80.6,39.615l2.55,2.96,5.874,6.694Z" transform="translate(-1 -1.5)" fill="#fff"/>
        <path id="Path_7" data-name="Path 7" d="M23.594,34.646,13.03,24.036,6.29,30.821l17.3,17.35L57.019,14.655,50.279,7.87Z" transform="translate(17.799 21.138)" fill="#fff"/>
      </g>
    </g>
  </g>
</svg>
